HIERARCHY
ROOT Pelvis
{
	OFFSET 0.000000 0.000000 0.000000
	CHANNELS 6 Xposition Yposition Zposition Xrotation Yrotation Zrotation
	JOINT LeftUpLeg_virtual
	{
		OFFSET 0.000000 0.000000 0.000000
		CHANNELS 3 Xrotation Yrotation Zrotation
		JOINT LeftUpLeg
		{
			OFFSET 18.735201 -5.666702 -4.541200
			CHANNELS 3 Xrotation Yrotation Zrotation
			JOINT LeftLeg
			{
				OFFSET -0.021200 -31.938179 0.493100
				CHANNELS 3 Xrotation Yrotation Zrotation
				JOINT LeftFoot
				{
					OFFSET 0.021200 -31.938179 -4.336299
					CHANNELS 3 Xrotation Yrotation Zrotation
					JOINT LeftToeBase
					{
						OFFSET 0.943001 -26.722000 15.023500
						CHANNELS 3 Xrotation Yrotation Zrotation
						End Site
						{
							OFFSET 0 0 0
						}
					}
				}
			}
		}
	}
	JOINT RightUpLeg_virtual
	{
		OFFSET 0.000000 0.000000 0.000000
		CHANNELS 3 Xrotation Yrotation Zrotation
		JOINT RightUpLeg
		{
			OFFSET -18.735201 -5.666702 -4.541200
			CHANNELS 3 Xrotation Yrotation Zrotation
			JOINT RightLeg
			{
				OFFSET 0.018946 -31.938133 0.493100
				CHANNELS 3 Xrotation Yrotation Zrotation
				JOINT RightFoot
				{
					OFFSET -0.018946 -31.938126 -4.336299
					CHANNELS 3 Xrotation Yrotation Zrotation
					JOINT RightToeBase
					{
						OFFSET -0.943001 -26.722004 15.023500
						CHANNELS 3 Xrotation Yrotation Zrotation
						End Site
						{
							OFFSET 0 0 0
						}
					}
				}
			}
		}
	}
	JOINT Hips_virtual
	{
		OFFSET 0.000000 0.000000 0.000000
		CHANNELS 3 Xrotation Yrotation Zrotation
		JOINT Hips
		{
			OFFSET -0.000000 -0.000000 -0.000000
			CHANNELS 3 Xrotation Yrotation Zrotation
			JOINT Spine
			{
				OFFSET 0.000000 10.199997 -0.299500
				CHANNELS 3 Xrotation Yrotation Zrotation
				JOINT Spine1
				{
					OFFSET 0.000000 11.900002 -1.516600
					CHANNELS 3 Xrotation Yrotation Zrotation
					JOINT Spine2
					{
						OFFSET 0.000000 13.600006 -2.842500
						CHANNELS 3 Xrotation Yrotation Zrotation
						JOINT Neck_virtual
						{
							OFFSET 0.000000 0.000000 0.000000
							CHANNELS 3 Xrotation Yrotation Zrotation
							JOINT Neck
							{
								OFFSET 0.000000 9.624100 -2.890100
								CHANNELS 3 Xrotation Yrotation Zrotation
								JOINT Head
								{
									OFFSET 0.000000 14.068802 -1.351900
									CHANNELS 3 Xrotation Yrotation Zrotation
									End Site
									{
										OFFSET 0 0 0
									}
								}
							}
						}
						JOINT LeftShoulder_virtual
						{
							OFFSET 0.000000 0.000000 0.000000
							CHANNELS 3 Xrotation Yrotation Zrotation
							JOINT LeftShoulder
							{
								OFFSET 15.263000 10.923401 -0.547700
								CHANNELS 3 Xrotation Yrotation Zrotation
								JOINT LeftArm
								{
									OFFSET 25.438599 -2.830597 -13.032500
									CHANNELS 3 Xrotation Yrotation Zrotation
									JOINT LeftForeArm
									{
										OFFSET 29.960503 0.000000 0.000000
										CHANNELS 3 Xrotation Yrotation Zrotation
										JOINT LeftHand
										{
											OFFSET 27.849251 0.000000 0.000000
											CHANNELS 3 Xrotation Yrotation Zrotation
											End Site
											{
												OFFSET 0 0 0
											}
										}
									}
								}
							}
						}
						JOINT RightShoulder_virtual
						{
							OFFSET 0.000000 0.000000 0.000000
							CHANNELS 3 Xrotation Yrotation Zrotation
							JOINT RightShoulder
							{
								OFFSET -15.263000 10.923401 -0.547700
								CHANNELS 3 Xrotation Yrotation Zrotation
								JOINT RightArm
								{
									OFFSET -25.438599 -2.830597 -13.032500
									CHANNELS 3 Xrotation Yrotation Zrotation
									JOINT RightForeArm
									{
										OFFSET -29.960503 0.000000 0.000000
										CHANNELS 3 Xrotation Yrotation Zrotation
										JOINT RightHand
										{
											OFFSET -27.849251 0.000000 0.000000
											CHANNELS 3 Xrotation Yrotation Zrotation
											End Site
											{
												OFFSET 0 0 0
											}
										}
									}
								}
							}
						}
					}
				}
			}
		}
	}
}
MOTION
Frames: 5
Frame Time: 0.03333333
-2.503699 94.370506 8.812742 0.000000 0.000000 0.000000 2.405698 1.928292 -3.534783 -45.320726 -8.826335 -4.601821 55.410036 2.544849 -0.080427 35.525795 5.679854 -11.624535 0.000000 0.000000 0.000000 2.414278 2.329591 -3.205658 -25.533689 -10.716227 0.194338 28.212312 1.805243 1.116710 31.991718 11.500717 -5.820028 0.000000 0.000000 0.000000 2.372940 2.267234 -3.378572 -0.960882 0.006839 0.132403 7.783131 -1.417743 6.960789 -0.055868 1.335966 -1.805010 0.000000 0.000000 0.000000 -7.717577 -0.361288 0.436356 -0.400622 0.661874 0.932429 0.000000 0.000000 0.000000 -5.316843 -0.692639 1.528422 -4.594299 0.644578 -5.245633 9.071821 -1.731730 -72.576887 17.418938 -17.999910 -0.358260 0.000000 0.000000 0.000000 -6.736231 -0.476786 -0.445806 -0.750351 17.707037 -3.841494 2.333996 8.417152 85.658693 12.875362 24.157961 -18.414127 0.000000 0.000000 0.000000 
-2.714773 94.533737 11.225449 0.000000 0.000000 0.000000 2.469490 1.735179 -3.454561 -45.367554 -10.410652 -4.304261 50.450369 0.836973 0.124899 33.373974 1.492209 -14.561381 0.000000 0.000000 0.000000 2.594556 2.313411 -3.569869 -25.984382 -11.158598 -0.790643 30.517207 3.073897 1.505843 36.002586 13.349922 -3.672837 0.000000 0.000000 0.000000 2.549972 2.934014 -3.560305 -0.930162 -0.035327 0.149470 8.411999 -1.175928 6.937577 -0.104780 1.426200 -1.736370 0.000000 0.000000 0.000000 -7.551899 -0.326692 0.515492 -0.354411 0.649700 0.910092 0.000000 0.000000 0.000000 -5.424520 -0.679308 1.595297 -4.760108 0.810597 -5.503986 9.157983 -1.719607 -72.657175 17.314275 -18.844031 -0.321730 0.000000 0.000000 0.000000 -6.725424 -0.417413 -0.201387 -0.755602 17.690610 -3.678405 1.139380 9.253602 84.573110 12.634724 24.206387 -17.845802 0.000000 0.000000 0.000000 
-3.029317 94.594093 14.213684 0.000000 0.000000 0.000000 3.104340 1.566740 -3.837961 -45.664295 -10.776588 -3.075514 41.864579 0.591719 -0.846474 35.556428 0.468626 -15.136338 0.000000 0.000000 0.000000 2.941256 2.344134 -4.158150 -26.103907 -12.123053 -1.522749 33.545689 4.403761 1.698135 39.033865 14.892000 -2.603313 0.000000 0.000000 0.000000 3.111262 3.285578 -4.037413 -0.858341 -0.076654 0.132652 9.168441 -0.681280 7.198574 -0.502121 1.597286 -1.378158 0.000000 0.000000 0.000000 -7.639384 -0.228211 0.764220 -0.518242 0.695285 0.870389 0.000000 0.000000 0.000000 -5.841658 -0.572580 1.871624 -4.836231 1.418700 -6.133838 9.450315 -1.363959 -73.043293 17.069910 -19.716125 -0.278320 0.000000 0.000000 0.000000 -6.784070 -0.304939 0.222088 -0.618191 17.430317 -3.715495 0.024691 10.314536 83.551102 12.623083 25.217822 -17.178730 0.000000 0.000000 0.000000 
-3.298551 94.411880 17.150639 0.000000 0.000000 0.000000 4.019414 1.509310 -4.499869 -46.562253 -10.017663 -1.550096 32.060823 1.733439 -2.052721 41.115307 2.809263 -13.450844 0.000000 0.000000 0.000000 3.411130 2.337633 -4.790578 -24.227234 -13.009487 -1.389256 35.610332 4.954039 1.500165 37.045116 14.762940 -2.933484 0.000000 0.000000 0.000000 3.928446 3.284771 -4.615872 -0.802749 -0.087331 0.076031 9.691461 -0.048075 7.650177 -1.132218 1.816345 -0.861140 0.000000 0.000000 0.000000 -7.977365 -0.098726 1.132783 -0.861538 0.806757 0.832164 0.000000 0.000000 0.000000 -6.476993 -0.412387 2.290617 -4.791498 2.463441 -6.881943 10.199332 -0.911692 -73.461382 16.639792 -20.446156 -0.316957 0.000000 0.000000 0.000000 -6.936672 -0.175297 0.696527 -0.343766 16.807555 -3.978421 -0.619530 11.349381 82.849040 12.814429 27.151518 -16.411929 0.000000 0.000000 0.000000 
-3.344115 93.847717 20.038174 0.000000 0.000000 0.000000 4.976197 1.432830 -5.164675 -47.384458 -8.840835 -0.874604 22.421776 3.001155 -2.510160 46.623179 7.139083 -10.877954 0.000000 0.000000 0.000000 3.916364 2.081124 -5.222437 -19.881279 -13.390413 -0.478739 35.965543 4.826822 0.858207 30.129672 13.667757 -3.829631 0.000000 0.000000 0.000000 4.811413 2.858137 -4.998716 -0.759395 -0.091220 -0.005847 9.765860 0.525332 8.106183 -1.904106 2.041879 -0.353860 0.000000 0.000000 0.000000 -8.463088 0.027139 1.535844 -1.288019 0.988037 0.794136 0.000000 0.000000 0.000000 -7.147339 -0.243501 2.774579 -4.631626 3.764484 -7.430763 11.394542 -0.605128 -73.676793 16.045569 -20.799833 -0.508885 0.000000 0.000000 0.000000 -7.182324 -0.055369 1.081133 0.031974 15.854056 -4.422565 -0.949704 11.976880 82.641546 13.122855 29.826849 -15.497938 0.000000 0.000000 0.000000 
